<svg width="735" height="718" viewBox="0 0 735 718" fill="none" xmlns="http://www.w3.org/2000/svg">
<path d="M686.327 454.063H445.409V317.873H686.327V454.063ZM446.879 452.627H684.858V319.309H446.879V452.627Z" fill="#E0E0E0"/>
<path d="M636.627 390.491H477.676V395.044H636.627V390.491Z" fill="#F0F0F0"/>
<path d="M647.578 407.465H477.676V412.434H647.578V407.465Z" fill="#F0F0F0"/>
<path d="M647.578 424.639H477.676V429.608H647.578V424.639Z" fill="#F0F0F0"/>
<path d="M533.227 365.835H477.676V377.654H533.227V365.835Z" fill="#F0F0F0"/>
<path d="M685.593 318.591H446.189V340.275H685.593V318.591Z" fill="#E0E0E0"/>
<path d="M667.174 337.029C666.865 336.742 669.952 333.109 674.053 328.916C678.155 324.723 681.756 321.549 682.05 321.822C682.344 322.095 679.272 325.742 675.17 329.95C671.069 334.157 667.468 337.316 667.174 337.029Z" fill="white"/>
<path d="M682.08 337.029C681.786 337.316 678.199 334.157 674.083 329.95C669.967 325.742 666.895 322.109 667.203 321.822C667.512 321.535 671.084 324.694 675.2 328.916C679.316 333.138 682.359 336.742 682.08 337.029Z" fill="white"/>
<path d="M389.873 48.8958L150.469 48.8958V183.664H389.873V48.8958Z" fill="#E6E6E6"/>
<path d="M340.922 120.811L181.971 120.811V125.363L340.922 125.363V120.811Z" fill="#F0F0F0"/>
<path d="M351.873 137.784H181.971V142.753H351.873V137.784Z" fill="#F0F0F0"/>
<path d="M351.873 154.959H181.971V159.927H351.873V154.959Z" fill="#F0F0F0"/>
<path d="M237.522 96.1545H181.971V107.973H237.522V96.1545Z" fill="#F0F0F0"/>
<path d="M389.873 48.8958L150.469 48.8958V70.5794L389.873 70.5794V48.8958Z" fill="#E0E0E0"/>
<path d="M370.645 67.2335C370.337 66.9606 373.424 63.3132 377.525 59.1201C381.626 54.9269 385.228 51.7534 385.522 52.0406C385.816 52.3278 382.743 55.9609 378.642 60.154C374.541 64.3471 370.939 67.4919 370.645 67.2335Z" fill="white"/>
<path d="M385.522 67.2335C385.228 67.5207 381.641 64.3615 377.525 60.154C373.409 55.9465 370.337 52.3278 370.645 52.0406C370.954 51.7534 374.526 54.9126 378.642 59.1201C382.758 63.3276 385.831 66.9607 385.522 67.2335Z" fill="white"/>
<path d="M299.203 299.248H58.3291L58.3291 163.043H299.203V299.248ZM59.7991 297.812H297.733V164.479H59.7991L59.7991 297.812Z" fill="#E0E0E0"/>
<path d="M249.518 235.676H90.5664V240.228H249.518V235.676Z" fill="#F0F0F0"/>
<path d="M260.469 252.65H90.5664V257.618H260.469V252.65Z" fill="#F0F0F0"/>
<path d="M260.469 269.824H90.5664V274.793H260.469V269.824Z" fill="#F0F0F0"/>
<path d="M146.118 211.02H90.5664V222.838H146.118V211.02Z" fill="#F0F0F0"/>
<path d="M298.469 163.761H59.0645V185.445H298.469V163.761Z" fill="#E0E0E0"/>
<path d="M577.195 330.452H294.514V577.674H577.195V330.452Z" fill="#E6E6E6"/>
<path d="M308.729 252.578H87.2881L87.2881 477.326H308.729V252.578Z" fill="#F0F0F0"/>
<path d="M308.729 252.578H87.2881V277.062H308.729V252.578Z" fill="#E0E0E0"/>
<path d="M105.575 264.569C105.535 265.456 105.229 266.313 104.694 267.032C104.16 267.752 103.421 268.302 102.57 268.615C101.718 268.928 100.791 268.989 99.9044 268.792C99.0172 268.595 98.2089 268.148 97.5797 267.506C96.9505 266.864 96.5281 266.056 96.3649 265.181C96.2017 264.307 96.3049 263.405 96.6618 262.588C97.0186 261.77 97.6133 261.073 98.3721 260.583C99.1309 260.092 100.02 259.831 100.93 259.83C102.188 259.86 103.383 260.375 104.253 261.263C105.124 262.151 105.599 263.339 105.575 264.569Z" fill="white"/>
<path d="M124.436 264.569C124.398 265.461 124.093 266.322 123.558 267.046C123.023 267.77 122.282 268.324 121.427 268.64C120.572 268.956 119.641 269.019 118.75 268.821C117.858 268.624 117.046 268.175 116.414 267.53C115.782 266.885 115.358 266.073 115.195 265.195C115.031 264.316 115.136 263.41 115.496 262.59C115.856 261.769 116.455 261.07 117.218 260.579C117.982 260.088 118.876 259.828 119.79 259.83C121.048 259.86 122.243 260.375 123.114 261.263C123.984 262.151 124.459 263.339 124.436 264.569Z" fill="white"/>
<path d="M143.295 264.569C143.257 265.461 142.952 266.322 142.417 267.046C141.882 267.77 141.141 268.324 140.286 268.64C139.431 268.956 138.5 269.019 137.609 268.821C136.718 268.624 135.905 268.175 135.273 267.53C134.641 266.885 134.217 266.073 134.054 265.195C133.891 264.316 133.996 263.41 134.355 262.59C134.715 261.769 135.314 261.07 136.078 260.579C136.841 260.088 137.736 259.828 138.65 259.83C139.908 259.86 141.103 260.375 141.973 261.263C142.843 262.151 143.319 263.339 143.295 264.569Z" fill="white"/>
<path d="M654.708 98.05L372.027 98.05V373.274H654.708V98.05Z" fill="#F0F0F0"/>
<path d="M654.708 98.05L372.027 98.05V130.288H654.708V98.05Z" fill="#E0E0E0"/>
<path d="M396.106 113.846C396.054 115.018 395.651 116.149 394.946 117.1C394.242 118.05 393.268 118.777 392.144 119.191C391.02 119.605 389.797 119.687 388.626 119.427C387.455 119.168 386.387 118.578 385.556 117.731C384.725 116.885 384.167 115.818 383.951 114.664C383.736 113.51 383.871 112.32 384.342 111.24C384.813 110.161 385.598 109.241 386.599 108.593C387.601 107.946 388.775 107.601 389.976 107.599C391.635 107.637 393.212 108.316 394.361 109.486C395.51 110.657 396.137 112.225 396.106 113.846Z" fill="white"/>
<path d="M419.141 109.624C419.956 110.489 420.492 111.568 420.683 112.729C420.875 113.889 420.712 115.079 420.216 116.149C419.72 117.22 418.912 118.124 417.894 118.75C416.875 119.375 415.691 119.694 414.488 119.667C413.286 119.64 412.118 119.267 411.13 118.596C410.143 117.925 409.379 116.984 408.935 115.892C408.491 114.8 408.385 113.604 408.631 112.454C408.878 111.304 409.465 110.25 410.321 109.423C411.519 108.309 413.12 107.705 414.773 107.743C416.427 107.781 417.997 108.457 419.141 109.624Z" fill="white"/>
<path d="M445.762 113.846C445.711 115.018 445.307 116.149 444.603 117.1C443.899 118.05 442.924 118.777 441.801 119.191C440.677 119.605 439.454 119.687 438.283 119.427C437.111 119.168 436.044 118.578 435.213 117.731C434.382 116.885 433.824 115.818 433.608 114.664C433.392 113.51 433.528 112.32 433.999 111.24C434.47 110.161 435.254 109.241 436.256 108.593C437.258 107.946 438.432 107.601 439.633 107.599C441.292 107.637 442.869 108.316 444.018 109.486C445.167 110.657 445.794 112.225 445.762 113.846Z" fill="white"/>
<path d="M593.645 650.695C593.645 650.896 491.568 651.068 365.692 651.068C239.816 651.068 137.695 650.896 137.695 650.695C137.695 650.494 239.757 650.321 365.692 650.321C491.627 650.321 593.645 650.508 593.645 650.695Z" fill="#263238"/>
<path d="M494.185 474.9C471.473 459.405 466.328 430.642 467.225 404.78C467.372 400.472 466.887 395.905 468.989 392.129C471.091 388.352 476.001 385.753 479.955 387.562C483.233 389.07 484.659 392.803 486.497 395.891C488.948 400.003 492.541 403.354 496.86 405.555C499.668 406.991 503.152 407.853 505.93 406.359C509.752 404.306 510.193 399.179 510.164 394.871C510.164 386.858 510.115 378.855 510.017 370.861C509.753 366.569 510.199 362.263 511.34 358.11C512.707 354.031 515.75 350.255 519.91 349.106C524.07 347.957 529.259 350.327 530.2 354.52C530.362 356.296 530.406 358.08 530.332 359.862C530.45 361.657 531.302 363.624 533.022 364.17C534.742 364.715 536.535 363.466 537.858 362.202C542.386 357.894 545.473 352.28 548.34 346.737C551.206 341.194 554.014 335.493 558.13 330.768C562.246 326.044 567.935 322.296 574.3 321.937C580.665 321.578 587.295 325.398 588.882 331.429C590.47 337.46 586.868 343.62 583.002 348.517C577.168 355.786 570.291 362.194 562.584 367.544C561.079 368.347 559.879 369.6 559.159 371.12C558.203 373.992 560.982 376.864 563.877 377.769C567.156 378.831 570.713 378.501 574.167 378.903C577.622 379.305 581.297 380.77 582.605 383.929C584.399 388.323 580.635 392.918 576.946 395.934C569.537 401.965 561.124 406.71 552.073 409.964C548.839 411.112 545.444 412.132 542.827 414.343C540.21 416.555 538.652 420.418 540.225 423.448C541.798 426.478 545.841 427.44 549.236 426.822C552.632 426.205 555.645 424.424 558.879 423.232C564.921 421.006 572.712 421.409 576.519 426.506C577.699 428.262 578.446 430.262 578.701 432.347C578.956 434.433 578.712 436.548 577.989 438.526C576.518 442.462 574.254 446.071 571.33 449.138C561.702 460.375 549.193 468.913 535.08 473.88C521.071 478.619 508.091 479.911 494.17 474.928" fill="#B16CFF"/>
<path d="M582.414 325.484C582.414 325.484 582.282 325.627 581.988 325.886L580.68 327.02C579.533 328.025 577.843 329.49 575.711 331.429C569.668 336.91 564.056 342.829 558.924 349.135C555.646 353.112 552.25 357.621 548.634 362.518C545.017 367.415 541.284 372.699 537.579 378.314C533.63 384.235 530.013 390.361 526.745 396.666C525.04 399.955 523.541 403.387 521.997 406.891L517.44 417.589C511.433 431.064 506.202 444.857 501.77 458.902C498.2 470.394 495.739 482.188 494.42 494.128C493.565 502.185 493.427 510.3 494.008 518.382C494.244 521.254 494.464 523.451 494.67 524.944C494.758 525.662 494.817 526.237 494.876 526.653V527.242C494.812 527.055 494.768 526.863 494.743 526.667C494.67 526.251 494.582 525.691 494.464 524.973C494.2 523.537 493.92 521.268 493.656 518.396C492.946 510.3 492.996 502.157 493.803 494.07C495.04 482.079 497.447 470.231 500.991 458.687C505.386 444.602 510.603 430.775 516.617 417.273L521.292 406.618C522.835 403.128 524.349 399.667 526.069 396.365C529.36 390.041 533.006 383.9 536.991 377.97C540.754 372.226 544.547 367.027 548.119 362.174C551.691 357.32 555.146 352.782 558.409 348.819C563.594 342.53 569.281 336.652 575.417 331.242C577.593 329.332 579.327 327.896 580.503 326.934L581.87 325.857C582.038 325.715 582.22 325.589 582.414 325.484Z" fill="#263238"/>
<path d="M526.26 396.336C526.053 395.744 525.91 395.133 525.834 394.512C525.599 393.32 525.334 391.64 525.025 389.458C524.393 385.15 523.747 379.248 523.056 372.714C522.365 366.18 521.586 360.264 520.939 355.999C520.601 353.873 520.307 352.165 520.101 350.973C519.94 350.363 519.856 349.736 519.851 349.106C520.104 349.681 520.287 350.284 520.395 350.901C520.718 352.078 521.086 353.773 521.497 355.913C522.335 360.221 523.159 366.079 523.849 372.628C524.54 379.176 525.128 384.92 525.584 389.386C525.805 391.396 525.996 393.105 526.143 394.469C526.257 395.085 526.296 395.711 526.26 396.336Z" fill="#263238"/>
<path d="M582.826 386.026C582.111 386.178 581.382 386.264 580.65 386.284C579.18 386.413 577.093 386.586 574.506 386.873C569.331 387.418 562.217 388.424 554.411 389.86C546.605 391.296 539.593 392.918 534.551 394.168C532.038 394.799 530.009 395.374 528.671 395.762C527.957 396.01 527.218 396.183 526.466 396.279C527.146 395.945 527.854 395.671 528.583 395.46C529.965 394.986 531.964 394.326 534.463 393.622C539.476 392.186 546.488 390.477 554.323 389.012C560.96 387.773 567.657 386.862 574.388 386.284C576.99 386.069 579.092 385.982 580.562 385.954C581.317 385.904 582.076 385.928 582.826 386.026Z" fill="#263238"/>
<path d="M501.712 457.682C501.555 457.474 501.426 457.247 501.329 457.007L500.359 455.011C499.521 453.273 498.389 450.703 497.037 447.558C494.303 441.24 490.819 432.394 487.114 422.572C483.41 412.749 480 403.904 477.412 397.514C476.148 394.412 475.105 391.87 474.325 389.975L473.502 387.921C473.388 387.684 473.309 387.433 473.267 387.174C473.424 387.382 473.552 387.609 473.649 387.849L474.619 389.845C475.443 391.583 476.589 394.153 477.942 397.298C480.676 403.617 484.16 412.462 487.864 422.285C491.569 432.107 494.979 440.953 497.566 447.343C498.83 450.444 499.874 452.986 500.638 454.882C500.977 455.7 501.256 456.318 501.476 456.935C501.59 457.172 501.67 457.423 501.712 457.682Z" fill="#263238"/>
<path d="M576.799 434.031C576.564 434.163 576.312 434.264 576.049 434.333L573.874 435.051L565.833 437.592C559.041 439.746 549.663 442.819 539.373 446.208C529.083 449.597 519.66 452.613 512.825 454.623C509.414 455.643 506.636 456.418 504.71 456.935L502.491 457.495C502.232 457.575 501.966 457.628 501.697 457.653C501.932 457.521 502.184 457.42 502.446 457.352L504.622 456.634L512.663 454.092C519.454 451.938 528.833 448.865 539.123 445.476C549.413 442.087 558.821 439.071 565.656 437.061C569.082 436.041 571.845 435.266 573.786 434.749L576.005 434.189C576.263 434.109 576.529 434.056 576.799 434.031Z" fill="#263238"/>
<path d="M546.164 85.7005L538.593 88.3428L535.345 78.6785C529.376 60.8577 510.355 51.3945 492.876 57.4113C475.398 63.4282 466.093 82.9721 472.061 100.793L475.31 110.457L467.71 113.114C464.812 114.212 462.459 116.359 461.139 119.108C459.819 121.857 459.635 124.997 460.624 127.876L481.69 190.758C482.127 192.183 482.853 193.508 483.824 194.653C484.796 195.799 485.994 196.742 487.346 197.426C488.698 198.111 490.177 198.523 491.695 198.638C493.213 198.753 494.74 198.569 496.184 198.096L574.638 170.683C577.574 169.587 579.961 167.421 581.296 164.641C582.631 161.861 582.81 158.684 581.797 155.777L560.717 92.8949C560.268 91.4739 559.531 90.1557 558.55 89.0191C557.568 87.8825 556.362 86.9506 555.004 86.2792C553.646 85.6077 552.163 85.2104 550.644 85.111C549.125 85.0116 547.602 85.2121 546.164 85.7005ZM486.364 95.7525C484.755 91.1189 485.044 86.0566 487.17 81.6264C489.297 77.1961 493.096 73.7417 497.771 71.9867C500.08 71.2151 502.524 70.9056 504.958 71.0768C507.392 71.2481 509.766 71.8965 511.938 72.9834C514.109 74.0703 516.035 75.5734 517.599 77.403C519.163 79.2327 520.334 81.3514 521.041 83.6327L524.275 93.297L489.598 105.417L486.364 95.7525ZM530.464 151.555L535.844 167.61C535.943 167.932 535.911 168.279 535.755 168.578C535.599 168.878 535.331 169.107 535.006 169.218L527.465 171.846C527.165 171.927 526.845 171.892 526.571 171.748C526.297 171.603 526.09 171.36 525.995 171.071L520.571 155.088C517.58 154.929 514.71 153.881 512.346 152.084C509.981 150.288 508.235 147.829 507.341 145.036C506.063 141.344 506.296 137.312 507.992 133.784C509.688 130.256 512.715 127.506 516.44 126.11C518.28 125.496 520.226 125.25 522.165 125.387C524.103 125.523 525.994 126.04 527.724 126.906C529.453 127.771 530.987 128.968 532.233 130.425C533.479 131.882 534.413 133.569 534.977 135.386C535.923 138.223 536.001 141.268 535.202 144.147C534.403 147.027 532.762 149.617 530.479 151.599L530.464 151.555Z" fill="#B16CFF"/>
<path d="M538.256 88.1705C538.256 88.3716 524.217 93.5268 506.753 99.6585C489.29 105.79 475.045 110.716 474.972 110.572C474.898 110.429 489.01 105.23 506.489 99.0841C523.967 92.938 538.182 87.9838 538.256 88.1705Z" fill="#263238"/>
<path d="M554.925 90.8127C554.99 90.9373 555.044 91.067 555.087 91.2004C555.204 91.4876 555.337 91.861 555.513 92.3205C555.895 93.3688 556.424 94.8191 557.086 96.6285L562.731 112.683C565.083 119.49 567.89 127.56 571.007 136.521C572.477 141.015 574.211 145.697 575.828 150.622C576.694 153.16 577.068 155.834 576.931 158.506C576.806 159.895 576.402 161.247 575.74 162.483C575.034 163.716 574.09 164.803 572.962 165.686C570.691 167.305 568.17 168.561 565.494 169.405L557.924 172.062L543.591 177.073L519.322 185.517L502.931 191.146L498.521 192.582L497.345 192.955C497.219 193.01 497.085 193.044 496.948 193.056C496.948 193.056 497.066 193.056 497.316 192.884L498.462 192.438L502.872 190.816L519.175 184.957L543.4 176.341L557.703 171.286L565.274 168.615C567.874 167.805 570.321 166.588 572.521 165.011C573.571 164.192 574.449 163.182 575.108 162.038C575.731 160.895 576.106 159.639 576.211 158.348C576.346 155.773 575.987 153.197 575.152 150.751C573.565 145.869 571.889 141.144 570.375 136.65C567.317 127.675 564.495 119.576 562.26 112.769C560.026 105.962 558.144 100.491 556.851 96.6428C556.233 94.7617 555.763 93.297 555.381 92.2343L555.028 91.0855C554.984 90.9985 554.949 90.907 554.925 90.8127Z" fill="#263238"/>
<path d="M513.53 71.0102C513.53 71.0102 512.751 70.6369 511.31 70.0625C509.257 69.2917 507.085 68.8645 504.886 68.7988C501.627 68.6896 498.384 69.288 495.39 70.5507C491.749 72.1231 488.636 74.6664 486.408 77.8887C484.165 81.1018 482.962 84.8989 482.954 88.7879C482.984 91.9754 483.479 95.1425 484.424 98.1937C485.188 100.807 485.982 102.889 486.511 104.34C486.823 105.076 487.079 105.835 487.275 106.609C486.858 105.92 486.508 105.194 486.232 104.44C485.629 103.004 484.762 100.965 483.909 98.3373C482.863 95.254 482.293 92.0355 482.219 88.7879C482.179 84.7519 483.411 80.8017 485.747 77.4722C488.052 74.1323 491.293 71.5103 495.081 69.9189C498.168 68.6492 501.513 68.0891 504.857 68.2818C507.103 68.3937 509.31 68.9046 511.369 69.7896C511.919 70.0377 512.45 70.3257 512.956 70.6512C513.165 70.741 513.359 70.8621 513.53 71.0102Z" fill="#263238"/>
<path d="M514.206 127.201C514.441 127.062 514.687 126.942 514.941 126.842C515.677 126.518 516.439 126.253 517.22 126.052C518.459 125.695 519.737 125.483 521.027 125.42C522.782 125.328 524.538 125.587 526.187 126.181C529.95 127.474 533.404 131.222 535.11 136.233C535.927 138.923 535.927 141.787 535.11 144.476C534.203 147.395 532.578 150.053 530.376 152.216L530.464 151.828C532.42 157.07 534.551 162.756 536.756 168.687L536.888 169.046L536.521 169.175L533.155 170.267L525.805 172.665L525.437 172.78L525.319 172.421C523.306 166.476 521.101 160.933 519.439 155.49L519.763 155.734C516.889 155.501 514.149 154.447 511.884 152.704C509.834 151.162 508.154 149.202 506.959 146.96C505.881 144.972 505.345 142.747 505.401 140.498C505.469 138.2 506.056 135.945 507.121 133.894C508.186 131.843 509.702 130.048 511.56 128.637C512.325 128.03 513.184 127.546 514.103 127.201C513.273 127.682 512.468 128.205 511.693 128.766C509.651 130.453 508.087 132.624 507.15 135.07C506.346 136.915 505.97 138.911 506.049 140.914C506.127 142.918 506.659 144.88 507.606 146.659C508.78 148.815 510.421 150.697 512.413 152.173C514.574 153.83 517.186 154.829 519.925 155.045H520.174L520.248 155.26C521.865 160.602 524.085 166.188 526.128 172.162L525.643 171.932L532.993 169.534L536.344 168.429L536.109 168.917C533.919 162.986 531.802 157.285 529.862 152.044V151.828L530.038 151.656C532.175 149.582 533.769 147.036 534.683 144.232C535.463 141.659 535.463 138.921 534.683 136.348C533.081 131.523 529.774 127.862 526.187 126.569C524.599 125.971 522.904 125.693 521.203 125.751C519.934 125.779 518.671 125.948 517.44 126.253C515.25 126.785 514.221 127.273 514.206 127.201Z" fill="#263238"/>
<path d="M468.768 541.832L321.93 541.171C313.45 541.125 305.335 537.794 299.368 531.908C293.401 526.022 290.069 518.064 290.104 509.78L291.662 150.191C291.68 146.087 292.525 142.027 294.15 138.242C295.774 134.457 298.147 131.022 301.131 128.134C304.115 125.245 307.653 122.959 311.542 121.407C315.431 119.855 319.596 119.067 323.797 119.087L470.62 119.748C479.1 119.79 487.216 123.118 493.186 129.001C499.156 134.884 502.492 142.841 502.46 151.125L500.902 510.699C500.885 514.804 500.04 518.866 498.416 522.653C496.791 526.439 494.42 529.876 491.436 532.767C488.452 535.658 484.914 537.946 481.025 539.501C477.135 541.057 472.971 541.849 468.768 541.832Z" fill="#455A64"/>
<path d="M470.399 132.112H441.94C441.011 132.129 440.095 132.324 439.244 132.687C438.393 133.05 437.623 133.573 436.979 134.226C436.334 134.879 435.828 135.65 435.489 136.495C435.15 137.34 434.984 138.241 435.002 139.148V144.189C435.019 145.095 434.853 145.996 434.514 146.84C434.175 147.684 433.668 148.454 433.024 149.106C432.379 149.758 431.609 150.28 430.758 150.641C429.907 151.002 428.991 151.196 428.063 151.211L372.585 150.967C370.709 150.918 368.928 150.143 367.636 148.813C366.343 147.483 365.644 145.706 365.691 143.873V138.832C365.739 137.001 365.041 135.227 363.752 133.897C362.462 132.567 360.686 131.791 358.811 131.739H348.801L323.884 131.624C317.958 131.589 312.259 133.85 308.035 137.912C303.812 141.973 301.407 147.504 301.349 153.293L299.879 504.28C299.866 507.152 300.431 509.999 301.544 512.657C302.656 515.316 304.294 517.734 306.364 519.774C308.433 521.814 310.893 523.436 313.605 524.548C316.316 525.659 319.224 526.238 322.164 526.251L468.694 526.911C471.636 526.925 474.552 526.372 477.275 525.284C479.998 524.196 482.476 522.596 484.565 520.573C486.655 518.55 488.317 516.145 489.455 513.495C490.593 510.844 491.186 508.001 491.2 505.127L492.67 154.14C492.705 148.335 490.379 142.753 486.203 138.622C482.026 134.492 476.342 132.15 470.399 132.112Z" fill="white"/>
<path d="M450.687 480.083L341.73 479.624C340.599 479.624 339.687 478.418 339.702 476.953L339.819 449.109C339.819 447.673 340.746 446.438 341.877 446.438L450.834 446.926C451.461 447.032 452.022 447.371 452.4 447.871C452.778 448.371 452.944 448.995 452.862 449.612L452.76 477.427C452.76 478.906 451.819 480.098 450.687 480.083Z" fill="#B16CFF"/>
<path d="M376.348 459.05C376.304 458.677 376.125 458.387 375.81 458.18C375.496 457.974 375.11 457.871 374.653 457.871C374.319 457.871 374.026 457.925 373.776 458.033C373.528 458.141 373.334 458.29 373.194 458.479C373.056 458.668 372.987 458.883 372.987 459.124C372.987 459.325 373.035 459.499 373.131 459.643C373.229 459.786 373.354 459.905 373.507 460.001C373.659 460.094 373.819 460.172 373.986 460.233C374.153 460.292 374.307 460.34 374.447 460.377L375.213 460.583C375.41 460.635 375.628 460.706 375.869 460.797C376.112 460.888 376.344 461.012 376.566 461.169C376.789 461.324 376.973 461.523 377.118 461.766C377.263 462.009 377.336 462.308 377.336 462.662C377.336 463.07 377.229 463.438 377.015 463.767C376.804 464.097 376.494 464.358 376.087 464.552C375.681 464.746 375.189 464.843 374.609 464.843C374.068 464.843 373.6 464.756 373.205 464.582C372.811 464.407 372.502 464.164 372.276 463.852C372.052 463.54 371.926 463.178 371.896 462.765H372.84C372.864 463.05 372.96 463.286 373.127 463.473C373.297 463.657 373.51 463.794 373.768 463.885C374.029 463.974 374.309 464.018 374.609 464.018C374.958 464.018 375.271 463.961 375.548 463.848C375.826 463.733 376.046 463.573 376.208 463.369C376.37 463.163 376.451 462.922 376.451 462.647C376.451 462.396 376.381 462.193 376.241 462.035C376.101 461.878 375.917 461.75 375.689 461.652C375.46 461.554 375.213 461.468 374.948 461.394L374.019 461.129C373.429 460.959 372.963 460.717 372.619 460.403C372.275 460.088 372.103 459.677 372.103 459.168C372.103 458.745 372.217 458.377 372.445 458.062C372.676 457.746 372.986 457.5 373.374 457.325C373.765 457.149 374.201 457.06 374.682 457.06C375.169 457.06 375.601 457.147 375.98 457.322C376.358 457.494 376.658 457.73 376.879 458.029C377.102 458.329 377.22 458.669 377.233 459.05H376.348ZM379.753 457.163V464.711H378.839V457.163H379.753ZM387.57 457.163V464.711H386.686L382.573 458.785H382.499V464.711H381.585V457.163H382.47L386.597 463.104H386.671V457.163H387.57ZM394.558 459.522C394.477 459.274 394.37 459.051 394.238 458.855C394.108 458.656 393.952 458.486 393.77 458.346C393.59 458.206 393.386 458.099 393.158 458.026C392.929 457.952 392.679 457.915 392.406 457.915C391.959 457.915 391.552 458.031 391.186 458.261C390.82 458.492 390.529 458.833 390.313 459.282C390.097 459.732 389.989 460.283 389.989 460.937C389.989 461.591 390.098 462.142 390.317 462.592C390.535 463.041 390.831 463.382 391.205 463.613C391.578 463.844 391.998 463.959 392.465 463.959C392.898 463.959 393.278 463.867 393.608 463.683C393.939 463.496 394.197 463.233 394.381 462.894C394.568 462.552 394.662 462.151 394.662 461.689L394.942 461.748H392.671V460.937H395.546V461.748C395.546 462.369 395.413 462.91 395.148 463.369C394.885 463.829 394.522 464.185 394.057 464.438C393.595 464.689 393.065 464.814 392.465 464.814C391.797 464.814 391.21 464.657 390.703 464.342C390.2 464.028 389.807 463.581 389.524 463.001C389.244 462.421 389.104 461.733 389.104 460.937C389.104 460.34 389.184 459.803 389.344 459.327C389.506 458.847 389.734 458.44 390.029 458.103C390.324 457.766 390.673 457.508 391.076 457.329C391.479 457.15 391.922 457.06 392.406 457.06C392.804 457.06 393.175 457.12 393.519 457.241C393.866 457.359 394.174 457.527 394.444 457.746C394.717 457.962 394.944 458.221 395.126 458.523C395.308 458.823 395.433 459.156 395.502 459.522H394.558ZM404.983 457.163H405.897V462.161C405.897 462.677 405.776 463.137 405.532 463.543C405.292 463.945 404.951 464.264 404.512 464.497C404.072 464.728 403.556 464.843 402.964 464.843C402.372 464.843 401.856 464.728 401.416 464.497C400.976 464.264 400.635 463.945 400.391 463.543C400.151 463.137 400.03 462.677 400.03 462.161V457.163H400.944V462.087C400.944 462.455 401.025 462.783 401.187 463.071C401.35 463.356 401.58 463.581 401.88 463.745C402.182 463.907 402.544 463.988 402.964 463.988C403.384 463.988 403.745 463.907 404.047 463.745C404.349 463.581 404.58 463.356 404.74 463.071C404.902 462.783 404.983 462.455 404.983 462.087V457.163ZM407.722 464.711V457.163H410.273C410.865 457.163 411.349 457.27 411.725 457.484C412.103 457.695 412.383 457.981 412.565 458.343C412.747 458.704 412.838 459.107 412.838 459.551C412.838 459.996 412.747 460.4 412.565 460.764C412.386 461.127 412.108 461.417 411.732 461.634C411.356 461.847 410.875 461.954 410.287 461.954H408.459V461.143H410.258C410.663 461.143 410.989 461.073 411.235 460.933C411.48 460.793 411.658 460.604 411.769 460.366C411.882 460.125 411.938 459.854 411.938 459.551C411.938 459.249 411.882 458.979 411.769 458.741C411.658 458.502 411.479 458.316 411.231 458.18C410.983 458.043 410.653 457.974 410.243 457.974H408.636V464.711H407.722Z" fill="#E8E8E3"/>
<path d="M363.463 235.289L325.655 235.121L325.623 241.899L363.431 242.067L363.463 235.289Z" fill="#B16CFF"/>
<path opacity="0.1" d="M363.463 235.289L325.655 235.121L325.623 241.899L363.431 242.067L363.463 235.289Z" fill="black"/>
<path d="M474.295 276.904C474.592 276.875 474.884 276.807 475.162 276.703C475.569 276.547 475.923 276.283 476.183 275.94C476.443 275.597 476.599 275.19 476.632 274.764C476.632 272.481 476.632 269.149 476.632 264.87C476.632 262.731 476.632 260.332 476.632 257.69C476.632 257.044 476.632 256.369 476.632 255.694C476.728 255.039 476.582 254.372 476.221 253.813C476.018 253.545 475.755 253.326 475.452 253.174C475.148 253.022 474.813 252.941 474.471 252.937H472.178H450.937L327.986 252.492C327.671 252.487 327.36 252.556 327.078 252.693C326.797 252.831 326.554 253.033 326.369 253.282C326.014 253.843 325.878 254.511 325.987 255.163C325.987 256.599 325.987 258.035 325.987 259.471C325.987 262.343 325.987 265.215 325.987 268.087C325.987 269.523 325.987 270.959 325.987 272.395C325.926 273.064 325.926 273.736 325.987 274.405C326.064 274.692 326.208 274.958 326.406 275.182C326.605 275.406 326.854 275.582 327.133 275.698C327.423 275.81 327.733 275.864 328.045 275.856H335.527L368.176 276.028L423.448 276.358L460.712 276.645L470.841 276.76H473.472C474.075 276.76 474.369 276.76 474.369 276.76H473.472H470.841H460.712H423.448L368.176 276.588L335.527 276.459H328.045C327.633 276.475 327.222 276.406 326.839 276.258C326.452 276.096 326.108 275.851 325.833 275.54C325.558 275.229 325.359 274.86 325.252 274.463C325.167 274.086 325.137 273.699 325.164 273.314V272.251C325.164 270.815 325.164 269.379 325.164 267.943C325.164 265.071 325.164 262.199 325.164 259.327C325.164 257.891 325.164 256.455 325.164 255.019C325.136 254.637 325.136 254.253 325.164 253.87C325.219 253.448 325.386 253.047 325.649 252.707C325.902 252.361 326.238 252.079 326.627 251.887C327.016 251.694 327.447 251.596 327.883 251.602L450.834 252.262L472.075 252.406H474.369C474.773 252.406 475.171 252.501 475.529 252.684C475.887 252.866 476.195 253.131 476.427 253.454C476.841 254.078 477.008 254.829 476.897 255.565C476.897 256.24 476.897 256.915 476.897 257.561C476.897 260.174 476.897 262.573 476.897 264.741C476.897 269.049 476.794 272.352 476.765 274.649C476.729 275.091 476.564 275.514 476.291 275.867C476.018 276.221 475.646 276.491 475.221 276.645C474.943 276.814 474.622 276.903 474.295 276.904Z" fill="#E0E0E0"/>
<path d="M406.161 259.701H337.012V266.033H406.161V259.701Z" fill="#B16CFF"/>
<path opacity="0.2" d="M406.161 259.701H337.012V266.033H406.161V259.701Z" fill="white"/>
<path d="M363.205 297.121L325.397 296.954L325.365 303.731L363.173 303.899L363.205 297.121Z" fill="#B16CFF"/>
<path opacity="0.1" d="M363.205 297.121L325.397 296.954L325.365 303.731L363.173 303.899L363.205 297.121Z" fill="black"/>
<path d="M473.339 338.738C473.636 338.702 473.931 338.65 474.221 338.58C474.632 338.452 475.009 338.24 475.329 337.958C475.648 337.675 475.902 337.329 476.073 336.943C476.305 336.363 476.395 335.739 476.338 335.119C476.338 334.43 476.338 333.683 476.338 332.85C476.338 331.185 476.338 329.289 476.338 327.106V317.988C476.408 317.328 476.259 316.663 475.912 316.092C475.549 315.507 474.979 315.073 474.309 314.872C473.577 314.744 472.831 314.705 472.09 314.757H450.936L328.412 314.312C327.753 314.313 327.117 314.548 326.622 314.974C326.127 315.399 325.807 315.985 325.722 316.624C325.722 317.988 325.722 319.496 325.722 320.932C325.722 323.804 325.722 326.676 325.722 329.548C325.722 330.984 325.722 332.42 325.722 333.856C325.667 334.527 325.697 335.202 325.81 335.866C325.993 336.448 326.371 336.954 326.883 337.302C327.426 337.639 328.064 337.799 328.706 337.762H330.749H334.997L367.528 337.92L422.609 338.25L459.742 338.537L469.84 338.652H472.472H473.354H472.472H469.84H459.742H422.609L367.499 338.594L334.968 338.48H328.573C327.778 338.526 326.989 338.319 326.324 337.891C325.655 337.438 325.167 336.774 324.943 336.01C324.811 335.28 324.771 334.537 324.825 333.798C324.825 332.362 324.825 330.926 324.825 329.49C324.825 326.618 324.825 323.746 324.825 320.874C324.825 319.438 324.825 318.002 324.825 316.566C324.932 315.745 325.342 314.99 325.978 314.443C326.614 313.896 327.432 313.594 328.279 313.594L450.804 314.254L471.957 314.412C472.745 314.365 473.536 314.418 474.309 314.57C475.073 314.814 475.717 315.326 476.117 316.006C476.498 316.639 476.662 317.373 476.588 318.103C476.588 318.778 476.588 319.438 476.588 320.099C476.588 322.698 476.588 325.082 476.588 327.279C476.588 329.476 476.588 331.328 476.588 333.023C476.588 333.841 476.588 334.602 476.588 335.306C476.641 335.948 476.535 336.593 476.279 337.187C476.088 337.583 475.812 337.935 475.47 338.217C475.127 338.5 474.726 338.707 474.295 338.824C473.973 338.85 473.65 338.821 473.339 338.738Z" fill="#E0E0E0"/>
<path d="M362.92 361.639L325.112 361.471L325.081 368.249L362.889 368.417L362.92 361.639Z" fill="#B16CFF"/>
<path opacity="0.1" d="M362.92 361.639L325.112 361.471L325.081 368.249L362.889 368.417L362.92 361.639Z" fill="black"/>
<path d="M473.046 403.229C473.343 403.195 473.637 403.142 473.928 403.071C474.336 402.944 474.713 402.734 475.032 402.454C475.352 402.174 475.606 401.831 475.78 401.448C476.01 400.868 476.101 400.244 476.044 399.625C476.044 398.921 476.044 398.189 476.044 397.341C476.044 395.69 476.044 393.78 476.044 391.597V382.479C476.115 381.819 475.965 381.154 475.618 380.583C475.247 380.009 474.679 379.581 474.016 379.377C473.284 379.244 472.539 379.201 471.796 379.248H450.643L328.118 378.803C327.459 378.804 326.823 379.039 326.328 379.465C325.834 379.89 325.514 380.476 325.428 381.114C325.428 382.55 325.428 383.986 325.428 385.422C325.428 388.294 325.428 391.166 325.428 394.038C325.428 395.474 325.428 396.91 325.428 398.346C325.373 399.013 325.403 399.683 325.516 400.343C325.692 400.928 326.072 401.436 326.59 401.779C327.129 402.123 327.77 402.284 328.412 402.238H334.807L367.338 402.41L422.419 402.741L459.551 403.028L469.65 403.143H472.281C472.869 403.143 473.163 403.143 473.163 403.143C473.163 403.143 472.869 403.143 472.281 403.143H469.65H459.551H422.419L367.338 402.985L334.807 402.856H328.412C327.617 402.908 326.826 402.701 326.163 402.267C325.494 401.814 325.006 401.15 324.781 400.386C324.65 399.656 324.61 398.913 324.664 398.174C324.664 396.738 324.664 395.302 324.664 393.866C324.664 390.994 324.664 388.122 324.664 385.25C324.664 383.814 324.664 382.378 324.664 380.87C324.768 380.05 325.175 379.296 325.808 378.749C326.442 378.201 327.258 377.899 328.104 377.898L450.628 378.558L471.781 378.716C472.569 378.669 473.36 378.722 474.133 378.874C474.897 379.118 475.541 379.63 475.942 380.31C476.322 380.943 476.487 381.677 476.412 382.407C476.412 383.082 476.412 383.757 476.412 384.403C476.412 387.002 476.412 389.386 476.412 391.583C476.412 393.78 476.412 395.632 476.412 397.327C476.412 398.145 476.412 398.907 476.412 399.61C476.468 400.252 476.362 400.898 476.103 401.491C475.912 401.888 475.636 402.239 475.294 402.521C474.951 402.804 474.551 403.011 474.119 403.128C473.774 403.244 473.406 403.278 473.046 403.229Z" fill="#E0E0E0"/>
<path d="M404.685 323.325L335.537 323.019L335.507 329.351L404.655 329.658L404.685 323.325Z" fill="#B16CFF"/>
<path opacity="0.2" d="M404.685 323.325L335.537 323.019L335.507 329.351L404.655 329.658L404.685 323.325Z" fill="white"/>
<path d="M341.789 391.511C341.746 392.089 341.53 392.641 341.168 393.1C340.806 393.559 340.314 393.904 339.754 394.092C339.193 394.28 338.588 394.304 338.014 394.159C337.44 394.015 336.921 393.709 336.524 393.28C336.126 392.85 335.866 392.316 335.776 391.744C335.686 391.171 335.77 390.585 336.017 390.059C336.265 389.533 336.665 389.089 337.169 388.783C337.672 388.477 338.256 388.322 338.849 388.337C339.668 388.382 340.436 388.74 340.986 389.334C341.537 389.928 341.825 390.711 341.789 391.511Z" fill="#B16CFF"/>
<path d="M351.153 391.554C351.182 391.959 351.125 392.365 350.987 392.748C350.848 393.13 350.63 393.481 350.347 393.778C350.063 394.075 349.721 394.311 349.34 394.473C348.959 394.635 348.548 394.718 348.132 394.718C347.717 394.718 347.306 394.635 346.925 394.473C346.544 394.311 346.201 394.075 345.918 393.778C345.634 393.481 345.416 393.13 345.278 392.748C345.139 392.365 345.082 391.959 345.111 391.554C345.082 391.149 345.139 390.743 345.278 390.361C345.416 389.978 345.634 389.627 345.918 389.331C346.201 389.034 346.544 388.797 346.925 388.635C347.306 388.474 347.717 388.39 348.132 388.39C348.548 388.39 348.959 388.474 349.34 388.635C349.721 388.797 350.063 389.034 350.347 389.331C350.63 389.627 350.848 389.978 350.987 390.361C351.125 390.743 351.182 391.149 351.153 391.554Z" fill="#B16CFF"/>
<path d="M360.532 391.597C360.488 392.175 360.272 392.727 359.91 393.186C359.549 393.645 359.057 393.99 358.496 394.178C357.936 394.366 357.331 394.39 356.756 394.245C356.182 394.101 355.664 393.795 355.266 393.366C354.868 392.936 354.608 392.402 354.518 391.83C354.428 391.257 354.513 390.672 354.76 390.145C355.008 389.619 355.408 389.175 355.911 388.869C356.415 388.563 356.999 388.408 357.592 388.424C358.409 388.472 359.175 388.831 359.725 389.424C360.274 390.018 360.564 390.798 360.532 391.597Z" fill="#B16CFF"/>
<path d="M369.895 391.64C369.852 392.218 369.636 392.77 369.274 393.229C368.912 393.688 368.421 394.033 367.86 394.221C367.299 394.41 366.694 394.433 366.12 394.289C365.546 394.144 365.028 393.838 364.63 393.409C364.232 392.979 363.972 392.445 363.882 391.873C363.792 391.3 363.876 390.715 364.124 390.188C364.372 389.662 364.772 389.219 365.275 388.912C365.779 388.606 366.363 388.451 366.955 388.467C367.773 388.515 368.539 388.874 369.088 389.468C369.638 390.061 369.928 390.841 369.895 391.64Z" fill="#B16CFF"/>
<path d="M379.26 391.669C379.219 392.247 379.006 392.802 378.645 393.262C378.285 393.723 377.794 394.07 377.233 394.261C376.673 394.451 376.067 394.477 375.492 394.334C374.917 394.191 374.397 393.886 373.998 393.457C373.599 393.028 373.337 392.493 373.246 391.921C373.155 391.348 373.239 390.761 373.486 390.234C373.733 389.707 374.134 389.263 374.638 388.956C375.141 388.649 375.726 388.494 376.32 388.51C377.135 388.558 377.898 388.915 378.447 389.505C378.997 390.096 379.288 390.872 379.26 391.669Z" fill="#B16CFF"/>
<path d="M388.638 391.712C388.598 392.288 388.386 392.839 388.029 393.299C387.673 393.758 387.186 394.106 386.629 394.299C386.073 394.492 385.471 394.522 384.897 394.384C384.324 394.247 383.804 393.95 383.401 393.528C382.999 393.106 382.731 392.578 382.632 392.009C382.532 391.441 382.605 390.856 382.841 390.327C383.078 389.799 383.467 389.349 383.961 389.034C384.456 388.719 385.034 388.551 385.624 388.553C386.452 388.583 387.234 388.932 387.799 389.524C388.364 390.116 388.666 390.903 388.638 391.712Z" fill="#B16CFF"/>
<path d="M398.002 391.755C398.031 392.16 397.974 392.566 397.835 392.949C397.697 393.331 397.479 393.682 397.195 393.979C396.912 394.276 396.569 394.512 396.188 394.674C395.807 394.836 395.396 394.919 394.981 394.919C394.565 394.919 394.154 394.836 393.773 394.674C393.392 394.512 393.05 394.276 392.766 393.979C392.483 393.682 392.265 393.331 392.126 392.949C391.988 392.566 391.931 392.16 391.96 391.755C391.931 391.35 391.988 390.944 392.126 390.561C392.265 390.179 392.483 389.828 392.766 389.532C393.05 389.235 393.392 388.998 393.773 388.836C394.154 388.675 394.565 388.591 394.981 388.591C395.396 388.591 395.807 388.675 396.188 388.836C396.569 388.998 396.912 389.235 397.195 389.532C397.479 389.828 397.697 390.179 397.835 390.561C397.974 390.944 398.031 391.35 398.002 391.755Z" fill="#B16CFF"/>
<path d="M407.366 391.798C407.326 392.374 407.115 392.925 406.758 393.385C406.401 393.844 405.914 394.192 405.358 394.385C404.801 394.578 404.199 394.608 403.626 394.471C403.052 394.334 402.532 394.036 402.13 393.614C401.727 393.192 401.46 392.664 401.36 392.096C401.261 391.527 401.334 390.942 401.57 390.414C401.806 389.885 402.195 389.435 402.69 389.12C403.184 388.805 403.762 388.638 404.353 388.639C405.181 388.669 405.963 389.018 406.528 389.61C407.093 390.203 407.394 390.989 407.366 391.798Z" fill="#B16CFF"/>
<path d="M416.73 391.841C416.689 392.42 416.476 392.974 416.115 393.435C415.755 393.895 415.264 394.243 414.704 394.433C414.143 394.624 413.537 394.649 412.962 394.506C412.387 394.363 411.867 394.058 411.468 393.629C411.069 393.2 410.808 392.666 410.716 392.093C410.625 391.52 410.709 390.933 410.956 390.406C411.204 389.879 411.604 389.435 412.108 389.128C412.612 388.822 413.197 388.667 413.79 388.682C414.605 388.73 415.368 389.088 415.918 389.678C416.467 390.268 416.758 391.044 416.73 391.841Z" fill="#B16CFF"/>
<g opacity="0.2">
<path d="M341.789 391.511C341.746 392.089 341.53 392.641 341.168 393.1C340.806 393.559 340.314 393.904 339.754 394.092C339.193 394.28 338.588 394.304 338.014 394.159C337.44 394.015 336.921 393.709 336.524 393.28C336.126 392.85 335.866 392.316 335.776 391.744C335.686 391.171 335.77 390.585 336.017 390.059C336.265 389.533 336.665 389.089 337.169 388.783C337.672 388.477 338.256 388.322 338.849 388.337C339.668 388.382 340.436 388.74 340.986 389.334C341.537 389.928 341.825 390.711 341.789 391.511Z" fill="white"/>
<path d="M351.153 391.554C351.182 391.959 351.125 392.365 350.987 392.748C350.848 393.13 350.63 393.481 350.347 393.778C350.063 394.074 349.721 394.311 349.34 394.473C348.959 394.635 348.548 394.718 348.132 394.718C347.717 394.718 347.306 394.635 346.925 394.473C346.544 394.311 346.201 394.074 345.918 393.778C345.634 393.481 345.416 393.13 345.278 392.748C345.139 392.365 345.082 391.959 345.111 391.554C345.082 391.149 345.139 390.743 345.278 390.36C345.416 389.978 345.634 389.627 345.918 389.331C346.201 389.034 346.544 388.797 346.925 388.635C347.306 388.473 347.717 388.39 348.132 388.39C348.548 388.39 348.959 388.473 349.34 388.635C349.721 388.797 350.063 389.034 350.347 389.331C350.63 389.627 350.848 389.978 350.987 390.36C351.125 390.743 351.182 391.149 351.153 391.554Z" fill="white"/>
<path d="M360.532 391.597C360.488 392.175 360.272 392.727 359.91 393.186C359.549 393.645 359.057 393.99 358.496 394.178C357.936 394.366 357.331 394.39 356.756 394.245C356.182 394.101 355.664 393.795 355.266 393.366C354.868 392.936 354.608 392.402 354.518 391.83C354.428 391.257 354.513 390.671 354.76 390.145C355.008 389.619 355.408 389.175 355.911 388.869C356.415 388.563 356.999 388.408 357.592 388.424C358.409 388.472 359.175 388.831 359.725 389.424C360.274 390.018 360.564 390.798 360.532 391.597Z" fill="white"/>
<path d="M369.895 391.64C369.852 392.218 369.636 392.77 369.274 393.229C368.912 393.688 368.421 394.033 367.86 394.221C367.299 394.41 366.694 394.433 366.12 394.289C365.546 394.144 365.028 393.838 364.63 393.409C364.232 392.979 363.972 392.445 363.882 391.873C363.792 391.3 363.876 390.715 364.124 390.188C364.372 389.662 364.772 389.219 365.275 388.912C365.779 388.606 366.363 388.451 366.955 388.467C367.773 388.515 368.539 388.874 369.088 389.467C369.638 390.061 369.928 390.841 369.895 391.64Z" fill="white"/>
<path d="M379.26 391.669C379.219 392.247 379.006 392.802 378.645 393.262C378.285 393.723 377.794 394.07 377.233 394.261C376.673 394.451 376.067 394.477 375.492 394.334C374.917 394.191 374.397 393.886 373.998 393.457C373.599 393.028 373.337 392.493 373.246 391.921C373.155 391.348 373.239 390.761 373.486 390.234C373.733 389.707 374.134 389.263 374.638 388.956C375.141 388.649 375.726 388.494 376.32 388.51C377.135 388.558 377.898 388.915 378.447 389.505C378.997 390.096 379.288 390.872 379.26 391.669Z" fill="white"/>
<path d="M388.638 391.712C388.598 392.288 388.386 392.839 388.029 393.299C387.673 393.758 387.186 394.106 386.629 394.299C386.073 394.492 385.471 394.521 384.897 394.384C384.324 394.247 383.804 393.95 383.401 393.528C382.999 393.106 382.731 392.578 382.632 392.009C382.532 391.441 382.605 390.856 382.841 390.327C383.078 389.799 383.467 389.349 383.961 389.034C384.456 388.719 385.034 388.551 385.624 388.553C386.452 388.583 387.234 388.932 387.799 389.524C388.364 390.116 388.666 390.903 388.638 391.712Z" fill="white"/>
<path d="M398.002 391.755C398.031 392.16 397.974 392.566 397.835 392.949C397.697 393.331 397.479 393.682 397.195 393.979C396.912 394.276 396.569 394.512 396.188 394.674C395.807 394.836 395.396 394.919 394.981 394.919C394.565 394.919 394.154 394.836 393.773 394.674C393.392 394.512 393.05 394.276 392.766 393.979C392.483 393.682 392.265 393.331 392.126 392.949C391.988 392.566 391.931 392.16 391.96 391.755C391.931 391.35 391.988 390.944 392.126 390.561C392.265 390.179 392.483 389.828 392.766 389.532C393.05 389.235 393.392 388.998 393.773 388.836C394.154 388.675 394.565 388.591 394.981 388.591C395.396 388.591 395.807 388.675 396.188 388.836C396.569 388.998 396.912 389.235 397.195 389.532C397.479 389.828 397.697 390.179 397.835 390.561C397.974 390.944 398.031 391.35 398.002 391.755Z" fill="white"/>
<path d="M407.366 391.798C407.326 392.374 407.115 392.925 406.758 393.385C406.401 393.844 405.914 394.192 405.358 394.385C404.801 394.578 404.199 394.608 403.626 394.471C403.052 394.334 402.532 394.036 402.13 393.614C401.727 393.192 401.46 392.664 401.36 392.095C401.261 391.527 401.334 390.942 401.57 390.414C401.806 389.885 402.195 389.435 402.69 389.12C403.184 388.805 403.762 388.638 404.353 388.639C405.181 388.669 405.963 389.018 406.528 389.61C407.093 390.203 407.394 390.989 407.366 391.798Z" fill="white"/>
<path d="M416.73 391.841C416.689 392.42 416.476 392.974 416.115 393.435C415.755 393.896 415.264 394.243 414.704 394.433C414.143 394.624 413.537 394.649 412.962 394.506C412.387 394.363 411.867 394.058 411.468 393.629C411.069 393.2 410.808 392.666 410.716 392.093C410.625 391.52 410.709 390.934 410.956 390.406C411.204 389.879 411.604 389.435 412.108 389.128C412.612 388.822 413.197 388.667 413.79 388.682C414.605 388.73 415.368 389.088 415.918 389.678C416.467 390.268 416.758 391.044 416.73 391.841Z" fill="white"/>
</g>
<path d="M403.426 184.54C404.448 184.101 405.314 183.378 405.918 182.462C406.522 181.545 406.836 180.475 406.822 179.385C406.86 178.677 406.75 177.968 406.499 177.302C406.248 176.637 405.86 176.028 405.36 175.513C404.86 174.999 404.258 174.589 403.591 174.309C402.924 174.029 402.205 173.884 401.479 173.884C400.752 173.884 400.034 174.029 399.366 174.309C398.699 174.589 398.097 174.999 397.597 175.513C397.097 176.028 396.71 176.637 396.459 177.302C396.207 177.968 396.097 178.677 396.135 179.385C396.113 180.486 396.425 181.569 397.032 182.496C397.639 183.424 398.514 184.155 399.546 184.598C391.314 185.804 391.681 194.535 391.681 194.535L411.144 194.621C411.144 194.621 411.6 185.732 403.426 184.54Z" fill="#B16CFF"/>
<path opacity="0.1" d="M403.426 184.54C404.448 184.101 405.314 183.378 405.918 182.462C406.522 181.545 406.836 180.475 406.822 179.385C406.86 178.677 406.75 177.968 406.499 177.302C406.248 176.637 405.86 176.028 405.36 175.513C404.86 174.999 404.258 174.589 403.591 174.309C402.924 174.029 402.205 173.884 401.479 173.884C400.752 173.884 400.034 174.029 399.366 174.309C398.699 174.589 398.097 174.999 397.597 175.513C397.097 176.028 396.71 176.637 396.459 177.302C396.207 177.968 396.097 178.677 396.135 179.385C396.113 180.486 396.425 181.569 397.032 182.496C397.639 183.424 398.514 184.155 399.546 184.598C391.314 185.804 391.681 194.535 391.681 194.535L411.144 194.621C411.144 194.621 411.6 185.732 403.426 184.54Z" fill="black"/>
<path d="M435.053 200.252L365.685 199.945L365.647 208.044L435.016 208.351L435.053 200.252Z" fill="#B16CFF"/>
<path opacity="0.2" d="M435.053 200.252L365.685 199.945L365.647 208.044L435.016 208.351L435.053 200.252Z" fill="white"/>
<path d="M180.032 242.224H179.341L177.342 242.368C176.26 242.432 175.184 242.571 174.122 242.785C173.435 242.879 172.753 243.008 172.079 243.172L169.801 243.79C165.922 244.952 162.263 246.722 158.967 249.031C154.611 252.12 150.974 256.074 148.294 260.634C146.72 263.263 145.466 266.063 144.561 268.977C143.609 272.145 143.061 275.415 142.929 278.713C142.841 280.446 142.871 282.183 143.017 283.912C143.017 284.788 143.267 285.663 143.385 286.554C143.484 287.451 143.656 288.34 143.899 289.21C145.221 294.973 147.903 300.354 151.731 304.924C155.56 309.494 160.429 313.126 165.949 315.532C169.945 317.216 174.227 318.156 178.576 318.304C183.068 318.545 187.565 317.916 191.806 316.451L193.1 315.977H193.276L193.423 316.064L211.96 325.254L211.416 325.714C209.432 319.711 207.521 313.895 205.669 308.309V308.094L205.83 307.936C210.327 303.511 213.665 298.093 215.562 292.14C217.279 286.697 217.781 280.958 217.032 275.31C216.365 270.29 214.713 265.444 212.166 261.036C209.97 257.25 207.138 253.852 203.787 250.984C201.023 248.714 197.963 246.812 194.688 245.326C192.209 244.282 189.628 243.488 186.985 242.957L184.045 242.483L181.913 242.325L180.62 242.239H180.179C180.325 242.223 180.473 242.223 180.62 242.239H181.928L184.06 242.325L187 242.741C189.676 243.234 192.292 243.999 194.805 245.025C198.137 246.493 201.252 248.391 204.066 250.668C207.478 253.523 210.371 256.922 212.622 260.72C215.241 265.175 216.944 270.087 217.634 275.181C218.446 280.916 217.979 286.755 216.267 292.298C214.358 298.375 210.969 303.908 206.389 308.424L206.477 308.051C208.329 313.637 210.255 319.453 212.254 325.441L212.533 326.317L211.696 325.9L193.159 316.724H193.482L192.159 317.198C187.836 318.684 183.256 319.328 178.679 319.094C174.237 318.928 169.864 317.954 165.787 316.222C158.011 312.968 151.541 307.313 147.368 300.124C145.448 296.804 144.046 293.222 143.208 289.498C142.979 288.604 142.807 287.698 142.694 286.784C142.576 285.879 142.385 284.989 142.341 284.098C141.943 278.989 142.496 273.851 143.973 268.934C144.901 265.98 146.189 263.145 147.809 260.49C150.553 255.889 154.265 251.909 158.702 248.816C162.053 246.501 165.774 244.744 169.712 243.617L172.02 243.043C172.7 242.889 173.386 242.769 174.078 242.684C175.151 242.49 176.237 242.375 177.327 242.339L179.341 242.268C179.57 242.237 179.801 242.223 180.032 242.224Z" fill="#B16CFF"/>
<path d="M188.41 275.712H185.691L179.811 267.642V262.343C179.811 262.343 175.607 262.084 176.107 269.02C176.606 275.956 176.107 274.19 176.107 274.19C176.107 274.19 167.184 274.19 166.449 274.98C165.714 275.769 165.67 284.184 165.567 288.88C165.51 290.012 165.843 291.13 166.511 292.056C167.18 292.982 168.146 293.664 169.256 293.992C169.568 294.077 169.889 294.12 170.212 294.122C172.446 294.122 183.809 292.355 183.809 292.355H188.499L188.41 275.712Z" fill="#B16CFF"/>
<path d="M196.187 274.29L194.511 292.441H189.866V274.664L196.187 274.29Z" fill="#B16CFF"/>
<path d="M251.59 643.816V631.538L229.055 631.38L228.864 649.948L230.261 650.048C236.479 650.436 261.895 651.011 266.07 649.747C270.715 648.34 251.59 643.816 251.59 643.816Z" fill="#B16CFF"/>
<path d="M266.599 648.598C266.599 648.799 258.161 648.971 247.768 648.971C237.375 648.971 228.938 648.799 228.938 648.598C228.938 648.397 237.375 648.225 247.768 648.225C258.161 648.225 266.599 648.397 266.599 648.598Z" fill="#263238"/>
<path d="M251.987 646.329C251.796 646.229 251.987 645.582 252.443 644.893C252.899 644.204 253.516 643.917 253.663 644.06C253.81 644.204 253.501 644.75 253.06 645.338C252.619 645.927 252.178 646.43 251.987 646.329Z" fill="#263238"/>
<path d="M253.428 647.133C253.222 647.133 253.325 646.329 253.766 645.568C254.207 644.807 254.795 644.348 254.956 644.462C255.118 644.577 254.853 645.223 254.442 645.898C254.03 646.573 253.619 647.205 253.428 647.133Z" fill="#263238"/>
<path d="M235.73 648.541C235.641 648.541 235.303 648.282 234.818 647.736C234.226 647.035 233.566 646.391 232.848 645.812C232.142 645.261 231.301 644.9 230.408 644.764C229.717 644.678 229.276 644.764 229.232 644.678C229.188 644.592 229.614 644.29 230.423 644.233C231.49 644.211 232.531 644.556 233.363 645.209C234.142 645.83 234.8 646.584 235.303 647.435C235.641 648.067 235.818 648.483 235.73 648.541Z" fill="#263238"/>
<path d="M252.06 644.017C252.163 644.19 251.781 644.62 251.134 644.85C250.487 645.08 249.914 644.994 249.885 644.85C249.855 644.706 250.311 644.405 250.87 644.204C251.428 644.003 251.943 643.845 252.06 644.017Z" fill="#263238"/>
<path d="M251.708 642.825C251.708 643.041 251.12 643.213 250.356 643.227C249.591 643.242 248.988 643.069 249.003 642.868C249.018 642.667 249.621 642.481 250.356 642.466C251.091 642.452 251.679 642.624 251.708 642.825Z" fill="#263238"/>
<path d="M307.083 643.816V631.538L284.548 631.38L284.357 649.761L285.753 649.862C291.972 650.25 317.403 651.011 321.563 649.747C326.208 648.34 307.083 643.816 307.083 643.816Z" fill="#B16CFF"/>
<path d="M322.091 648.627C322.091 648.828 313.668 649 303.26 649C292.853 649 284.444 648.828 284.444 648.627C284.444 648.426 292.867 648.253 303.26 648.253C313.653 648.253 322.091 648.426 322.091 648.627Z" fill="#263238"/>
<path d="M307.48 646.329C307.304 646.229 307.48 645.582 307.936 644.893C308.391 644.204 309.009 643.917 309.156 644.06C309.303 644.204 308.994 644.75 308.553 645.338C308.112 645.927 307.671 646.43 307.48 646.329Z" fill="#263238"/>
<path d="M308.92 647.133C308.729 647.133 308.818 646.329 309.273 645.568C309.729 644.807 310.302 644.348 310.464 644.462C310.626 644.577 310.346 645.223 309.935 645.898C309.523 646.573 309.126 647.205 308.92 647.133Z" fill="#263238"/>
<path d="M291.222 648.541C291.133 648.541 290.81 648.282 290.31 647.736C289.718 647.035 289.059 646.391 288.34 645.812C287.634 645.261 286.793 644.9 285.9 644.764C285.224 644.678 284.768 644.764 284.724 644.678C284.68 644.592 285.106 644.29 285.915 644.233C286.982 644.211 288.023 644.556 288.855 645.209C289.639 645.826 290.297 646.581 290.795 647.435C291.134 648.067 291.31 648.483 291.222 648.541Z" fill="#263238"/>
<path d="M307.553 644.017C307.656 644.19 307.274 644.62 306.627 644.85C305.98 645.08 305.407 644.994 305.377 644.85C305.348 644.706 305.804 644.405 306.362 644.204C306.921 644.003 307.435 643.845 307.553 644.017Z" fill="#263238"/>
<path d="M307.229 642.825C307.229 643.041 306.641 643.213 305.877 643.227C305.113 643.242 304.525 643.069 304.539 642.868C304.554 642.667 305.142 642.481 305.877 642.466C306.612 642.452 307.229 642.624 307.229 642.825Z" fill="#263238"/>
<path d="M390.109 279.216C389.521 278.627 388.065 278.914 388.065 278.914C388.211 278.087 388.211 277.242 388.065 276.416C387.801 275.611 385.948 275.769 385.948 275.769C385.863 275.092 385.863 274.407 385.948 273.73C385.963 273.58 385.93 273.429 385.854 273.298C385.778 273.167 385.662 273.062 385.522 272.998C384.646 272.649 383.704 272.483 382.759 272.51C381.627 271.72 386.213 265.445 387.918 263.434C389.623 261.424 389.315 259.859 387.801 259.859C386.757 259.859 381.406 265.89 379.76 267.914C378.113 269.939 373.747 275.568 373.6 271.074C373.453 266.579 371.601 263.19 370.44 262.616C369.279 262.041 368.044 263.391 368.676 264.64C369.231 266.06 369.578 267.549 369.705 269.063C369.865 270.27 369.81 271.494 369.543 272.682C369.056 274.893 368.392 277.063 367.559 279.173H367.441C367.441 279.173 335.366 309.228 333.043 311.368C330.97 313.292 289.281 309.085 280.917 308.223C278.075 307.817 275.205 307.625 272.332 307.649C268.701 307.807 268.054 308.309 264.438 308.352C255.306 308.451 246.194 309.234 237.184 310.693C233.105 311.37 229.294 313.13 226.167 315.778C223.041 318.427 220.72 321.864 219.456 325.713C211.033 351.418 191.952 412.261 188.586 446.438C186.042 450.944 183.746 455.579 181.707 460.324C179.34 466.614 179.913 466.829 180.707 466.973C182.853 467.361 185.293 456.074 186.205 458.802C187.116 461.53 181.574 472.257 183.823 472.573C186.763 472.975 189.101 461.085 189.38 460.137C189.659 459.19 191.115 459.491 190.85 460.382C190.424 461.645 186.293 475.043 189.174 475.474C190.762 475.704 190.938 472.875 190.938 472.875C190.938 472.875 193.878 460.051 195.216 460.31C196.554 460.568 195.128 468.136 194.451 470.663C193.775 473.191 194.716 474.469 196.098 473.851C197.039 473.42 199.288 465.738 199.905 463.239C200.523 460.741 202.066 453.819 204.139 457.825C206.211 461.832 209.357 464.158 210.651 464.216C210.942 464.183 211.217 464.066 211.44 463.879C211.663 463.692 211.823 463.445 211.9 463.168C211.978 462.892 211.969 462.599 211.875 462.328C211.78 462.056 211.605 461.819 211.371 461.645C210.259 460.584 209.304 459.375 208.534 458.055C207.848 457.027 207.351 455.89 207.064 454.695C206.472 452.313 206.127 449.878 206.035 447.429L205.8 445.993C209.093 430.068 218.574 383.326 232.26 353.471L237.875 364.758L240.315 373.116L225.351 409.202L289.178 408.384L279.653 372.57L291.222 335.234C303.731 335.507 335.851 335.966 341.202 333.597C347.934 330.725 382.759 287.76 382.759 287.76C385.029 286.037 387.202 284.196 389.271 282.246C389.271 282.246 391.387 280.508 390.109 279.216Z" fill="#FFBE9D"/>
<path d="M222.543 382.536C224.395 376.361 233.906 345.832 233.906 345.832C233.906 345.832 238.581 370.718 237.346 373.719C236.21 376.288 234.868 378.766 233.333 381.129C222.543 397.169 223.954 405.196 223.954 405.196L289.149 403.257C289.296 394.354 283.901 373.647 282.783 370.344C281.666 367.042 285.385 356.229 285.385 356.229C285.385 356.229 292.735 348.919 292.471 345.157C292.331 341.777 291.903 338.415 291.192 335.105L330.882 336.541L329.632 310.262L272.626 304.69C270.641 310.162 252.693 307.476 252.693 307.476C233.318 308.108 232.113 311.583 224.057 317.701C216.001 323.818 202.668 376.318 202.668 376.318L222.543 382.536Z" fill="#B16CFF"/>
<path d="M261.086 376.318C259.957 376.515 258.806 376.573 257.661 376.49C255.53 376.49 252.604 376.347 249.385 376.031C246.166 375.715 243.255 375.27 241.183 374.868C240.04 374.724 238.919 374.444 237.846 374.035C238.995 374.035 240.142 374.141 241.271 374.351C243.358 374.609 246.254 374.968 249.459 375.284C252.663 375.6 255.574 375.815 257.676 375.959C258.822 375.973 259.964 376.093 261.086 376.318Z" fill="#263238"/>
<path d="M265.555 370.904C264.425 371.445 263.23 371.846 261.998 372.096C256.133 373.602 250.082 374.302 244.019 374.178C242.765 374.218 241.51 374.103 240.286 373.834C241.524 373.681 242.772 373.619 244.019 373.647C246.327 373.575 249.503 373.417 253.001 373.015C256.5 372.613 259.616 372.039 261.821 371.579C263.046 371.26 264.294 371.034 265.555 370.904Z" fill="#263238"/>
<path d="M287.488 346.751C287.458 347.846 287.305 348.934 287.032 349.996C286.65 351.992 286.062 354.721 285.312 357.708C284.563 360.694 283.842 363.452 283.195 365.318C282.935 366.387 282.551 367.423 282.049 368.406C282.131 367.314 282.338 366.235 282.666 365.189C283.225 362.949 283.857 360.364 284.563 357.535C285.268 354.706 285.944 352.122 286.503 349.881C286.702 348.803 287.033 347.752 287.488 346.751Z" fill="#263238"/>
<path d="M223.234 378.874C219.833 378.361 216.477 377.598 213.194 376.591C209.839 375.825 206.547 374.817 203.345 373.575C206.744 374.097 210.099 374.86 213.385 375.859C216.74 376.622 220.033 377.63 223.234 378.874Z" fill="#263238"/>
<path d="M291.897 334.789C291.343 334.882 290.776 334.882 290.222 334.789C288.686 334.635 287.178 334.283 285.738 333.741C283.333 332.858 281.144 331.494 279.311 329.735C277.478 327.977 276.042 325.864 275.095 323.531C274.049 320.965 273.602 318.203 273.787 315.446C273.853 313.173 274.549 310.959 275.801 309.042C276.682 307.75 277.997 306.8 279.52 306.356C279.927 306.247 280.347 306.193 280.769 306.198C281.063 306.198 281.21 306.198 281.21 306.198C281.21 306.198 280.593 306.198 279.608 306.586C278.211 307.09 277.027 308.035 276.242 309.271C274.243 312.344 273.684 317.959 275.816 323.2C276.808 325.672 278.361 327.891 280.358 329.691C281.994 331.164 283.879 332.35 285.929 333.195C287.853 333.938 289.854 334.472 291.897 334.789Z" fill="#263238"/>
<path d="M326.163 336.024C325.796 331.62 325.678 327.2 325.811 322.784C325.695 318.371 325.833 313.956 326.222 309.558C326.59 313.957 326.708 318.373 326.575 322.784C326.699 327.201 326.561 331.622 326.163 336.024Z" fill="#263238"/>
<path d="M272.244 306.299C272.406 303.096 272.744 299.478 272.744 299.478C272.744 299.478 280.858 298.602 281.343 290.417C281.828 282.231 281.343 263.348 281.343 263.348L266.643 255.996L250.326 268.532L252.84 309.458L267.804 310.391C268.948 310.422 270.058 310.009 270.89 309.242C271.723 308.474 272.209 307.416 272.244 306.299Z" fill="#FFBE9D"/>
<path d="M273.699 283.94C273.699 283.94 273.699 284.098 273.567 284.285C273.458 284.42 273.316 284.528 273.155 284.598C272.994 284.668 272.817 284.698 272.641 284.687C271.7 284.687 270.789 283.624 270.465 282.389C270.312 281.791 270.312 281.164 270.465 280.566C270.496 280.304 270.592 280.055 270.746 279.839C270.9 279.623 271.107 279.449 271.347 279.331C271.545 279.251 271.767 279.251 271.965 279.331C272.111 279.402 272.23 279.518 272.303 279.661C272.406 279.905 272.303 280.063 272.303 280.049C272.303 280.034 272.303 279.905 272.156 279.762C272.079 279.659 271.966 279.587 271.839 279.561C271.711 279.534 271.578 279.555 271.465 279.618C271.285 279.724 271.135 279.874 271.029 280.052C270.924 280.23 270.867 280.432 270.862 280.637C270.739 281.172 270.739 281.726 270.862 282.26C271.156 283.38 271.95 284.285 272.656 284.371C272.794 284.389 272.934 284.38 273.068 284.343C273.202 284.306 273.327 284.242 273.435 284.156C273.611 284.041 273.67 283.926 273.699 283.94Z" fill="#EB996E"/>
<path d="M286.385 258.925C285.253 255.163 281.152 253.296 277.418 252.262C271.729 250.682 265.585 249.993 260.028 251.989C254.471 253.985 247.798 257.489 247.798 263.477C244.519 263.219 242.638 266.019 241.344 269.494C240.517 271.611 240.022 273.838 239.874 276.1C239.463 283.94 237.214 294.768 232.01 300.512C229.07 303.714 224.998 305.925 223.322 309.917C221.852 313.378 222.616 317.485 221.249 320.989C220.029 324.076 217.339 326.274 215.369 328.959C213.362 332.005 212.181 335.5 211.937 339.115C211.693 342.729 212.393 346.345 213.973 349.623C215.564 352.816 217.803 355.66 220.555 357.981C223.308 360.301 226.515 362.05 229.981 363.121C236.848 365.162 244.17 365.232 251.076 363.322C256.258 362.112 261.093 359.77 265.217 356.473C269.436 353.107 272.334 348.419 273.42 343.204C274.463 337.345 272.788 331.386 271.538 325.556C267.628 307.132 268.745 306.17 273.684 289.067C273.802 288.765 273.861 288.449 273.949 288.148C274.037 287.846 274.081 287.703 274.14 287.473C274.28 286.797 274.354 286.109 274.36 285.419C273.639 285.681 272.856 285.737 272.103 285.579C271.351 285.421 270.66 285.057 270.112 284.529C269.563 283.966 269.18 283.268 269.004 282.51C268.828 281.751 268.866 280.96 269.113 280.221C269.459 279.412 269.976 278.684 270.629 278.083C271.283 277.482 272.058 277.021 272.905 276.732C274.537 276.071 276.286 275.726 277.888 274.994C281.284 273.414 283.636 270.14 285.238 266.708C286.556 264.33 286.962 261.57 286.385 258.925Z" fill="#263238"/>
<path d="M274.287 284.328C274.598 284.776 274.854 285.258 275.051 285.764C275.492 286.669 276.08 287.947 276.727 289.426L276.845 289.699H276.536L275.066 289.828C274.052 289.828 273.199 290.015 272.2 290C272.113 289.981 272.032 289.941 271.965 289.883C271.898 289.825 271.848 289.752 271.817 289.67C271.774 289.539 271.774 289.398 271.817 289.268C271.852 289.074 271.896 288.883 271.95 288.693L272.214 287.674C272.347 286.994 272.554 286.329 272.832 285.692C272.804 286.385 272.701 287.074 272.523 287.746L272.317 288.765C272.244 289.11 272.111 289.641 272.317 289.598C273.052 289.598 274.096 289.44 275.066 289.383L276.536 289.253L276.345 289.569C275.713 288.133 275.184 286.784 274.875 285.85C274.604 285.373 274.406 284.861 274.287 284.328Z" fill="#B16CFF"/>
<path d="M223.954 405.196L289.149 403.258L317.52 511.446L312.301 635.545H277.83L282.049 514.088L256.838 438.77L260.719 640.355L225.88 640.858L222.22 451.378C222.058 446.108 220.294 434.232 220.955 429.005L223.954 405.196Z" fill="#263238"/>
<path d="M265.512 440.306C264.444 440.372 263.373 440.309 262.322 440.12C260.352 439.89 257.662 439.488 254.707 438.913C251.752 438.339 249.106 437.678 247.195 437.147C246.174 436.928 245.186 436.58 244.255 436.113C244.255 435.898 249.048 437.018 254.928 438.181C260.808 439.344 265.541 440.091 265.512 440.306Z" fill="#455A64"/>
<path d="M311.949 628.738C311.949 628.939 304.143 629.112 294.514 629.112C284.886 629.112 277.065 628.939 277.065 628.738C277.065 628.537 284.871 628.365 294.514 628.365C304.158 628.365 311.949 628.523 311.949 628.738Z" fill="#455A64"/>
<path d="M260.41 635.114C260.41 635.329 252.825 635.487 243.476 635.487C234.127 635.487 226.556 635.329 226.556 635.114C226.556 634.899 234.141 634.741 243.476 634.741C252.81 634.741 260.41 634.913 260.41 635.114Z" fill="#455A64"/>
<path d="M255.912 634.597C255.706 634.597 254.795 590.555 253.869 536.231C252.943 481.907 252.399 437.836 252.59 437.836C252.781 437.836 253.722 481.864 254.633 536.217C255.545 590.569 256.133 634.597 255.912 634.597Z" fill="#455A64"/>
<path d="M307.318 628.738C307.302 628.542 307.302 628.345 307.318 628.149V626.426C307.318 624.875 307.435 622.65 307.524 619.821C307.729 614.077 308.023 605.733 308.391 595.509C309.185 574.946 310.302 546.599 311.522 515.309C311.522 515.007 311.522 514.72 311.522 514.461V514.562C303.804 484.406 296.822 457.036 291.75 437.233L285.87 413.812C285.194 411.069 284.68 408.93 284.312 407.436C284.136 406.733 284.018 406.187 283.915 405.77C283.858 405.584 283.824 405.391 283.812 405.196C283.889 405.377 283.948 405.564 283.989 405.756C284.106 406.158 284.253 406.704 284.459 407.393C284.856 408.829 285.429 411.012 286.164 413.74C287.634 419.283 289.707 427.267 292.294 437.104C297.41 456.892 304.466 484.19 312.286 514.389V514.49C312.286 514.748 312.286 515.05 312.286 515.337C310.978 546.628 309.787 574.96 308.92 595.523C308.464 605.762 308.082 614.048 307.818 619.821C307.671 622.693 307.553 624.875 307.479 626.426C307.479 627.159 307.391 627.733 307.377 628.149C307.379 628.347 307.359 628.545 307.318 628.738Z" fill="#533E83"/>
<path d="M296.073 511.934C293.597 512.729 291.046 513.282 288.458 513.585C285.283 514.117 282.578 514.49 281.358 514.547V514.26C281.755 514.375 281.96 514.447 281.96 514.504C281.96 514.562 281.711 514.504 281.299 514.504H280.417L281.299 514.246C282.446 513.916 285.15 513.37 288.326 512.81C290.872 512.27 293.467 511.977 296.073 511.934Z" fill="#455A64"/>
<path d="M295.469 516.055C293.177 516.158 290.879 516.057 288.605 515.754C286.308 515.708 284.021 515.463 281.769 515.021C286.363 514.655 290.988 515.004 295.469 516.055Z" fill="#455A64"/>
<path opacity="0.2" d="M223.675 407.479C224.447 408.448 225.419 409.246 226.529 409.823C227.638 410.4 228.86 410.741 230.113 410.825C232.739 411.129 235.395 411.081 238.007 410.682C254.839 408.858 272.67 407.178 289.149 403.258C267.819 404.421 245.284 404.033 223.954 405.196L223.734 406.977" fill="black"/>
<g opacity="0.2">
<path d="M245.651 436.846L257.676 482.424L256.838 438.77L245.651 436.846Z" fill="black"/>
</g>
</svg>
